<svg width="27" height="31" viewBox="0 0 27 31" fill="none" xmlns="http://www.w3.org/2000/svg">
<path d="M3 30.5627C2.175 30.5627 1.46875 30.269 0.88125 29.6815C0.29375 29.094 0 28.3877 0 27.5627V6.56274C0 5.73774 0.29375 5.03149 0.88125 4.44399C1.46875 3.85649 2.175 3.56274 3 3.56274H4.5V0.562744H7.5V3.56274H19.5V0.562744H22.5V3.56274H24C24.825 3.56274 25.5312 3.85649 26.1188 4.44399C26.7063 5.03149 27 5.73774 27 6.56274V27.5627C27 28.3877 26.7063 29.094 26.1188 29.6815C25.5312 30.269 24.825 30.5627 24 30.5627H3ZM3 27.5627H24V12.5627H3V27.5627ZM3 9.56274H24V6.56274H3V9.56274ZM13.5 18.5627C13.075 18.5627 12.7188 18.419 12.4313 18.1315C12.1438 17.844 12 17.4877 12 17.0627C12 16.6377 12.1438 16.2815 12.4313 15.994C12.7188 15.7065 13.075 15.5627 13.5 15.5627C13.925 15.5627 14.2813 15.7065 14.5688 15.994C14.8563 16.2815 15 16.6377 15 17.0627C15 17.4877 14.8563 17.844 14.5688 18.1315C14.2813 18.419 13.925 18.5627 13.5 18.5627ZM7.5 18.5627C7.075 18.5627 6.71875 18.419 6.43125 18.1315C6.14375 17.844 6 17.4877 6 17.0627C6 16.6377 6.14375 16.2815 6.43125 15.994C6.71875 15.7065 7.075 15.5627 7.5 15.5627C7.925 15.5627 8.28125 15.7065 8.56875 15.994C8.85625 16.2815 9 16.6377 9 17.0627C9 17.4877 8.85625 17.844 8.56875 18.1315C8.28125 18.419 7.925 18.5627 7.5 18.5627ZM19.5 18.5627C19.075 18.5627 18.7188 18.419 18.4313 18.1315C18.1438 17.844 18 17.4877 18 17.0627C18 16.6377 18.1438 16.2815 18.4313 15.994C18.7188 15.7065 19.075 15.5627 19.5 15.5627C19.925 15.5627 20.2812 15.7065 20.5688 15.994C20.8563 16.2815 21 16.6377 21 17.0627C21 17.4877 20.8563 17.844 20.5688 18.1315C20.2812 18.419 19.925 18.5627 19.5 18.5627ZM13.5 24.5627C13.075 24.5627 12.7188 24.419 12.4313 24.1315C12.1438 23.844 12 23.4877 12 23.0627C12 22.6377 12.1438 22.2815 12.4313 21.994C12.7188 21.7065 13.075 21.5627 13.5 21.5627C13.925 21.5627 14.2813 21.7065 14.5688 21.994C14.8563 22.2815 15 22.6377 15 23.0627C15 23.4877 14.8563 23.844 14.5688 24.1315C14.2813 24.419 13.925 24.5627 13.5 24.5627ZM7.5 24.5627C7.075 24.5627 6.71875 24.419 6.43125 24.1315C6.14375 23.844 6 23.4877 6 23.0627C6 22.6377 6.14375 22.2815 6.43125 21.994C6.71875 21.7065 7.075 21.5627 7.5 21.5627C7.925 21.5627 8.28125 21.7065 8.56875 21.994C8.85625 22.2815 9 22.6377 9 23.0627C9 23.4877 8.85625 23.844 8.56875 24.1315C8.28125 24.419 7.925 24.5627 7.5 24.5627ZM19.5 24.5627C19.075 24.5627 18.7188 24.419 18.4313 24.1315C18.1438 23.844 18 23.4877 18 23.0627C18 22.6377 18.1438 22.2815 18.4313 21.994C18.7188 21.7065 19.075 21.5627 19.5 21.5627C19.925 21.5627 20.2812 21.7065 20.5688 21.994C20.8563 22.2815 21 22.6377 21 23.0627C21 23.4877 20.8563 23.844 20.5688 24.1315C20.2812 24.419 19.925 24.5627 19.5 24.5627Z" fill="#F0F5FF"/>
</svg>
